:SAMPLES-PER-SECOND 30
:FULLY-SPECIFIED
:DEGREES
552
root  -1.95853 40.7367 2.37358 -178.17 -43.3383 -178.209
RightUpLeg  -9.10742 3.8724 0.106158
RightLeg  -0.148067 16.5535 -1.53487
RightFoot  5.29531 -1.19563 8.41131
RightToes  -3.13006e-008 1.75238e-005 3.56266e-009
Spine  0.791251 -12.9674 -8.59907
Spine1  15.9978 -13.0878 -2.47008
HEad  -11.3068 12.4324 -17.6265
LeftShoulder1  6.19709 -14.0126 -29.333
LeftArm  26.5824 -43.7255 -87.292
LeftForeArm  -37.3024 -39.2617 -10.9982
LeftHand  0.00555161 6.27644 4.44801
RightShoulder  1.96278 4.91104 16.6874
RightArm  -53.1653 38.347 3.57763
RightForeArm  -32.5439 55.7051 18.9391
RightHand  -1.19043 3.48365 -15.7364
LeftUpLeg  0.825022 3.873 0.376175
LeftLeg  1.9159 55.8484 -0.982778
LeftFoot  -3.85282 0.234947 -3.24071
LeftToes  4.76866e-008 1.46233e-008 1.30548e-009
553
root  -2.05766 40.7726 2.07046 -178.991 -45.4481 -177.774
RightUpLeg  -7.84927 3.38225 0.296617
RightLeg  -0.173709 14.9869 -1.09096
RightFoot  4.83798 -1.08687 7.86881
RightToes  -3.13006e-008 1.75238e-005 3.56266e-009
Spine  0.0123127 -12.7038 -8.38297
Spine1  15.6771 -13.0962 -1.3729
HEad  -6.25714 13.1735 -16.6875
LeftShoulder1  6.05853 -13.6363 -29.2973
LeftArm  24.8392 -41.8303 -85.6198
LeftForeArm  -29.1102 -44.5933 -12.7185
LeftHand  -0.0304895 5.2326 4.477
RightShoulder  1.78941 4.26713 16.3751
RightArm  -53.5085 36.1009 2.97674
RightForeArm  -31.163 57.7299 20.4305
RightHand  -1.14852 3.41046 -15.3184
LeftUpLeg  1.79358 4.03354 1.01378
LeftLeg  1.41187 53.633 -1.24914
LeftFoot  -3.7571 0.251017 -3.43947
LeftToes  4.76866e-008 1.46233e-008 1.30548e-009
554
root  -2.15288 40.8109 1.77103 -179.852 -47.7543 -177.326
RightUpLeg  -6.43781 2.93333 0.501079
RightLeg  -0.47202 13.2584 -0.799382
RightFoot  4.46711 -0.98936 7.33674
RightToes  -3.13006e-008 1.75238e-005 3.56266e-009
Spine  -1.1916 -12.4165 -7.69413
Spine1  15.5624 -12.7757 -1.14688
HEad  0.0549106 13.6875 -14.5025
LeftShoulder1  5.72609 -13.1486 -28.3252
LeftArm  24.2822 -40.5233 -85.0024
LeftForeArm  -23.718 -50.3727 -15.1637
LeftHand  -0.0813701 3.89726 5.01574
RightShoulder  1.85459 4.36115 16.9786
RightArm  -55.1486 32.9137 1.00398
RightForeArm  -29.3574 60.6273 22.9401
RightHand  -1.14466 3.37884 -15.3199
LeftUpLeg  2.68388 4.18702 1.66526
LeftLeg  0.9642 51.3164 -1.47119
LeftFoot  -3.68511 0.249826 -3.36324
LeftToes  4.76866e-008 1.46233e-008 1.30548e-009
555
root  -2.26095 40.8484 1.4688 179.286 -50.1602 -176.823
RightUpLeg  -5.04508 2.50144 0.709517
RightLeg  -0.816079 11.529 -0.494917
RightFoot  4.10162 -0.896328 6.81054
RightToes  -3.13006e-008 1.75238e-005 3.56266e-009
Spine  -2.01096 -11.991 -7.22903
Spine1  14.3745 -12.4935 -0.264558
HEad  7.19866 14.2378 -12.289
LeftShoulder1  5.63676 -12.953 -28.1864
LeftArm  23.661 -40.0113 -84.3077
LeftForeArm  -17.5968 -55.5923 -17.9654
LeftHand  -0.132967 2.67569 5.22278
RightShoulder  1.82671 4.18767 17.1623
RightArm  -57.0256 29.9965 -0.273791
RightForeArm  -25.0703 63.8491 26.3064
RightHand  -1.14312 3.5026 -15.1036
LeftUpLeg  3.51843 4.09367 2.21515
LeftLeg  0.502303 49.0024 -1.43113
LeftFoot  -3.51995 0.266112 -3.56817
LeftToes  4.76866e-008 1.46233e-008 1.30548e-009
556
root  -2.39825 40.8745 1.18734 178.359 -52.6956 -176.298
RightUpLeg  -3.55981 2.01038 0.84002
RightLeg  -1.28076 9.63323 -0.182445
RightFoot  3.70943 -0.827914 6.45281
RightToes  -3.13006e-008 1.75238e-005 3.56266e-009
Spine  -2.86302 -11.7623 -6.95933
Spine1  13.4702 -12.4299 0.661762
HEad  14.2777 14.4624 -9.32674
LeftShoulder1  5.53601 -12.6186 -28.2775
LeftArm  23.2186 -41.4441 -83.3852
LeftForeArm  -9.5827 -60.2358 -21.1072
LeftHand  -0.157365 1.81866 4.90681
RightShoulder  1.73899 3.86586 16.9976
RightArm  -60.1667 27.921 -0.940791
RightForeArm  -17.9205 67.208 30.8085
RightHand  -1.08083 3.79713 -13.8348
LeftUpLeg  4.38677 4.07829 2.7869
LeftLeg  0.0235604 46.4504 -1.49367
LeftFoot  -3.40707 0.285442 -3.82305
LeftToes  4.76866e-008 1.46233e-008 1.30548e-009
557
root  -2.54059 40.8847 0.942153 177.556 -55.212 -175.901
RightUpLeg  -2.27428 1.49091 0.8738
RightLeg  -1.52938 7.68446 0.181203
RightFoot  3.13921 -0.755859 6.11144
RightToes  -3.13006e-008 1.75238e-005 3.56266e-009
Spine  -3.16629 -11.7426 -6.35385
Spine1  11.7895 -12.3924 0.851389
HEad  20.3806 14.4225 -6.56031
LeftShoulder1  5.31111 -12.0916 -27.9853
LeftArm  21.5803 -43.4262 -82.8879
LeftForeArm  -0.433235 -64.4442 -24.7776
LeftHand  -0.183174 0.520139 4.3496
RightShoulder  1.6927 3.65868 17.0433
RightArm  -63.703 26.1937 -1.23694
RightForeArm  -8.4627 70.6341 37.2314
RightHand  -0.944402 3.90257 -12.0487
LeftUpLeg  5.13872 4.06452 3.24021
LeftLeg  -0.337946 43.9226 -1.51666
LeftFoot  -3.36023 0.305728 -4.0913
LeftToes  4.76866e-008 1.46233e-008 1.30548e-009
558
root  -2.67465 40.8988 0.738449 177.095 -57.412 -175.67
RightUpLeg  -1.3031 1.20341 0.908866
RightLeg  -1.74767 5.85084 0.34154
RightFoot  2.67174 -0.662767 5.53734
RightToes  -3.13006e-008 1.75238e-005 3.56266e-009
Spine  -3.74415 -11.7637 -5.44677
Spine1  10.3982 -12.1909 0.247087
HEad  24.4236 14.1646 -3.81607
LeftShoulder1  4.9081 -11.3355 -26.984
LeftArm  19.2933 -45.9567 -82.7475
LeftForeArm  7.69912 -67.9276 -29.0434
LeftHand  -0.204952 -0.692804 4.0057
RightShoulder  1.66871 3.41963 17.5514
RightArm  -67.0501 24.6715 -1.82264
RightForeArm  3.7064 73.8419 46.5943
RightHand  -0.932435 5.05075 -10.6242
LeftUpLeg  5.80108 3.79554 3.4048
LeftLeg  -1.20042 42.0102 -1.71119
LeftFoot  -3.09866 0.334287 -4.38195
LeftToes  4.76866e-008 1.46233e-008 1.30548e-009
559
root  -2.81838 40.9109 0.564592 176.489 -59.5461 -175.408
RightUpLeg  -0.18149 0.947904 0.938129
RightLeg  -2.05768 4.05234 0.466289
RightFoot  2.28175 -0.600395 5.15318
RightToes  -3.13006e-008 1.75238e-005 3.56266e-009
Spine  -4.25171 -11.9222 -4.83314
Spine1  9.52359 -12.2414 -0.0565758
HEad  26.4579 13.4888 -2.15935
LeftShoulder1  4.51368 -10.4526 -26.2169
LeftArm  16.4124 -48.8348 -81.6555
LeftForeArm  14.8796 -71.2085 -35.0286
LeftHand  -0.216354 -1.27372 3.91073
RightShoulder  1.65317 3.38055 17.4575
RightArm  -70.5515 23.3016 -1.84184
RightForeArm  21.2653 76.6204 61.1121
RightHand  -0.83256 5.44497 -9.2053
LeftUpLeg  6.60897 3.68485 3.63637
LeftLeg  -2.1144 39.9701 -2.04852
LeftFoot  -2.87747 0.347473 -4.45989
LeftToes  4.76866e-008 1.46233e-008 1.30548e-009
560
root  -2.97341 40.9235 0.393534 175.796 -61.6608 -175.175
RightUpLeg  1.07551 0.611029 0.917642
RightLeg  -2.37705 2.37254 0.645071
RightFoot  1.89058 -0.538986 4.75507
RightToes  -3.13006e-008 1.75238e-005 3.56266e-009
Spine  -4.9592 -12.0168 -4.95887
Spine1  9.5073 -12.3638 0.27262
HEad  27.3109 12.2392 -0.784515
LeftShoulder1  4.15667 -9.66492 -25.425
LeftArm  12.5762 -51.2715 -80.1766
LeftForeArm  25.0412 -74.0275 -42.2726
LeftHand  -0.245877 -1.46973 4.29806
RightShoulder  1.5533 3.01617 17.2443
RightArm  -73.6262 21.9178 -1.4862
RightForeArm  45.7818 78.2507 82.5979
RightHand  -0.852435 5.64225 -9.25798
LeftUpLeg  7.53298 3.49659 3.802
LeftLeg  -2.9716 38.0299 -2.22912
LeftFoot  -2.60715 0.381444 -4.79007
LeftToes  4.76866e-008 1.46233e-008 1.30548e-009
